<mxfile host="app.diagrams.net" agent="Mozilla/5.0 (Windows NT 10.0; Win64; x64; rv:136.0) Gecko/20100101 Firefox/136.0" version="26.1.0">
  <diagram name="Page-1" id="c4acf3e9-155e-7222-9cf6-157b1a14988f">
    <mxGraphModel dx="1357" dy="898" grid="1" gridSize="10" guides="1" tooltips="1" connect="1" arrows="1" fold="1" page="1" pageScale="1" pageWidth="850" pageHeight="1100" background="none" math="0" shadow="0">
      <root>
        <mxCell id="0" />
        <mxCell id="1" parent="0" />
        <mxCell id="O3SPldgWUN4qXCOJDomB-1" value="" style="rounded=0;whiteSpace=wrap;html=1;" vertex="1" parent="1">
          <mxGeometry x="250" y="33" width="520" height="1010" as="geometry" />
        </mxCell>
        <mxCell id="O3SPldgWUN4qXCOJDomB-3" value="&lt;font style=&quot;font-size: 22px;&quot;&gt;LMS&lt;/font&gt;" style="text;html=1;align=center;verticalAlign=middle;whiteSpace=wrap;rounded=0;" vertex="1" parent="1">
          <mxGeometry x="415" y="90" width="60" height="30" as="geometry" />
        </mxCell>
        <mxCell id="O3SPldgWUN4qXCOJDomB-26" style="rounded=0;orthogonalLoop=1;jettySize=auto;html=1;exitX=0.5;exitY=0.5;exitDx=0;exitDy=0;exitPerimeter=0;entryX=0;entryY=0.5;entryDx=0;entryDy=0;endArrow=none;startFill=0;strokeColor=default;" edge="1" parent="1" source="O3SPldgWUN4qXCOJDomB-5" target="O3SPldgWUN4qXCOJDomB-11">
          <mxGeometry relative="1" as="geometry" />
        </mxCell>
        <mxCell id="O3SPldgWUN4qXCOJDomB-30" style="rounded=0;orthogonalLoop=1;jettySize=auto;html=1;exitX=0.5;exitY=0.5;exitDx=0;exitDy=0;exitPerimeter=0;entryX=0;entryY=0.5;entryDx=0;entryDy=0;endArrow=none;startFill=0;" edge="1" parent="1" source="O3SPldgWUN4qXCOJDomB-5" target="O3SPldgWUN4qXCOJDomB-27">
          <mxGeometry relative="1" as="geometry" />
        </mxCell>
        <mxCell id="O3SPldgWUN4qXCOJDomB-5" value="&lt;div&gt;Instructor&lt;/div&gt;" style="shape=umlActor;verticalLabelPosition=bottom;verticalAlign=top;html=1;outlineConnect=0;" vertex="1" parent="1">
          <mxGeometry x="90" y="366" width="30" height="60" as="geometry" />
        </mxCell>
        <mxCell id="O3SPldgWUN4qXCOJDomB-31" style="rounded=0;orthogonalLoop=1;jettySize=auto;html=1;exitX=0.5;exitY=0.5;exitDx=0;exitDy=0;exitPerimeter=0;entryX=0;entryY=0.5;entryDx=0;entryDy=0;endArrow=none;startFill=0;" edge="1" parent="1" source="O3SPldgWUN4qXCOJDomB-6" target="O3SPldgWUN4qXCOJDomB-8">
          <mxGeometry relative="1" as="geometry" />
        </mxCell>
        <mxCell id="O3SPldgWUN4qXCOJDomB-34" style="rounded=0;orthogonalLoop=1;jettySize=auto;html=1;exitX=0.5;exitY=0.5;exitDx=0;exitDy=0;exitPerimeter=0;entryX=0;entryY=0.5;entryDx=0;entryDy=0;endArrow=none;startFill=0;" edge="1" parent="1" source="O3SPldgWUN4qXCOJDomB-6" target="O3SPldgWUN4qXCOJDomB-32">
          <mxGeometry relative="1" as="geometry" />
        </mxCell>
        <mxCell id="O3SPldgWUN4qXCOJDomB-36" style="rounded=0;orthogonalLoop=1;jettySize=auto;html=1;exitX=0.5;exitY=0.5;exitDx=0;exitDy=0;exitPerimeter=0;entryX=0;entryY=0.5;entryDx=0;entryDy=0;endArrow=none;startFill=0;" edge="1" parent="1" source="O3SPldgWUN4qXCOJDomB-6" target="O3SPldgWUN4qXCOJDomB-35">
          <mxGeometry relative="1" as="geometry" />
        </mxCell>
        <mxCell id="O3SPldgWUN4qXCOJDomB-43" style="rounded=0;orthogonalLoop=1;jettySize=auto;html=1;exitX=0.5;exitY=0.5;exitDx=0;exitDy=0;exitPerimeter=0;entryX=0;entryY=0.5;entryDx=0;entryDy=0;endArrow=none;startFill=0;" edge="1" parent="1" source="O3SPldgWUN4qXCOJDomB-6" target="O3SPldgWUN4qXCOJDomB-37">
          <mxGeometry relative="1" as="geometry" />
        </mxCell>
        <mxCell id="O3SPldgWUN4qXCOJDomB-6" value="&lt;div&gt;Student&lt;/div&gt;" style="shape=umlActor;verticalLabelPosition=bottom;verticalAlign=top;html=1;outlineConnect=0;" vertex="1" parent="1">
          <mxGeometry x="120" y="100" width="30" height="60" as="geometry" />
        </mxCell>
        <mxCell id="O3SPldgWUN4qXCOJDomB-8" value="&lt;font style=&quot;font-size: 18px;&quot;&gt;Log into the LMS&lt;/font&gt;" style="ellipse;whiteSpace=wrap;html=1;" vertex="1" parent="1">
          <mxGeometry x="390" y="160" width="120" height="80" as="geometry" />
        </mxCell>
        <mxCell id="O3SPldgWUN4qXCOJDomB-10" value="" style="endArrow=none;html=1;rounded=0;exitX=0.5;exitY=0.5;exitDx=0;exitDy=0;exitPerimeter=0;entryX=0;entryY=0.5;entryDx=0;entryDy=0;" edge="1" parent="1" source="O3SPldgWUN4qXCOJDomB-5" target="O3SPldgWUN4qXCOJDomB-8">
          <mxGeometry width="50" height="50" relative="1" as="geometry">
            <mxPoint x="160" y="300" as="sourcePoint" />
            <mxPoint x="210" y="250" as="targetPoint" />
          </mxGeometry>
        </mxCell>
        <mxCell id="O3SPldgWUN4qXCOJDomB-18" style="edgeStyle=orthogonalEdgeStyle;rounded=0;orthogonalLoop=1;jettySize=auto;html=1;exitX=0.5;exitY=1;exitDx=0;exitDy=0;entryX=0.5;entryY=0;entryDx=0;entryDy=0;dashed=1;endArrow=open;endFill=0;" edge="1" parent="1" source="O3SPldgWUN4qXCOJDomB-11" target="O3SPldgWUN4qXCOJDomB-13">
          <mxGeometry relative="1" as="geometry" />
        </mxCell>
        <mxCell id="O3SPldgWUN4qXCOJDomB-19" style="edgeStyle=orthogonalEdgeStyle;rounded=0;orthogonalLoop=1;jettySize=auto;html=1;exitX=0.5;exitY=1;exitDx=0;exitDy=0;entryX=0.5;entryY=0;entryDx=0;entryDy=0;dashed=1;endArrow=open;endFill=0;" edge="1" parent="1" source="O3SPldgWUN4qXCOJDomB-11" target="O3SPldgWUN4qXCOJDomB-14">
          <mxGeometry relative="1" as="geometry" />
        </mxCell>
        <mxCell id="O3SPldgWUN4qXCOJDomB-11" value="&lt;font style=&quot;font-size: 17px;&quot;&gt;Create assignment item&lt;/font&gt;" style="ellipse;whiteSpace=wrap;html=1;" vertex="1" parent="1">
          <mxGeometry x="385" y="608" width="120" height="80" as="geometry" />
        </mxCell>
        <mxCell id="O3SPldgWUN4qXCOJDomB-13" value="&lt;font style=&quot;font-size: 11px;&quot;&gt;Upload instructions as PDF&lt;/font&gt;" style="ellipse;whiteSpace=wrap;html=1;" vertex="1" parent="1">
          <mxGeometry x="279" y="730" width="120" height="80" as="geometry" />
        </mxCell>
        <mxCell id="O3SPldgWUN4qXCOJDomB-41" style="rounded=0;orthogonalLoop=1;jettySize=auto;html=1;exitX=1;exitY=0.5;exitDx=0;exitDy=0;entryX=0;entryY=0.5;entryDx=0;entryDy=0;endArrow=none;startFill=0;" edge="1" parent="1" source="O3SPldgWUN4qXCOJDomB-14" target="O3SPldgWUN4qXCOJDomB-39">
          <mxGeometry relative="1" as="geometry" />
        </mxCell>
        <mxCell id="O3SPldgWUN4qXCOJDomB-14" value="Choose assessment upload type" style="ellipse;whiteSpace=wrap;html=1;" vertex="1" parent="1">
          <mxGeometry x="494" y="730" width="120" height="80" as="geometry" />
        </mxCell>
        <mxCell id="O3SPldgWUN4qXCOJDomB-20" value="&amp;lt;&amp;lt;includes&amp;gt;&amp;gt;" style="text;html=1;align=center;verticalAlign=middle;whiteSpace=wrap;rounded=0;" vertex="1" parent="1">
          <mxGeometry x="480" y="678" width="60" height="30" as="geometry" />
        </mxCell>
        <mxCell id="O3SPldgWUN4qXCOJDomB-21" value="&amp;lt;&amp;lt;includes&amp;gt;&amp;gt;" style="text;html=1;align=center;verticalAlign=middle;whiteSpace=wrap;rounded=0;" vertex="1" parent="1">
          <mxGeometry x="350" y="678" width="60" height="30" as="geometry" />
        </mxCell>
        <mxCell id="O3SPldgWUN4qXCOJDomB-27" value="Make assignment public" style="ellipse;whiteSpace=wrap;html=1;" vertex="1" parent="1">
          <mxGeometry x="326" y="837" width="120" height="80" as="geometry" />
        </mxCell>
        <mxCell id="O3SPldgWUN4qXCOJDomB-32" value="&lt;font style=&quot;font-size: 16px;&quot;&gt;Select assessment item&lt;/font&gt;" style="ellipse;whiteSpace=wrap;html=1;" vertex="1" parent="1">
          <mxGeometry x="385" y="260" width="120" height="80" as="geometry" />
        </mxCell>
        <mxCell id="O3SPldgWUN4qXCOJDomB-35" value="Attach submission" style="ellipse;whiteSpace=wrap;html=1;" vertex="1" parent="1">
          <mxGeometry x="390" y="370" width="120" height="80" as="geometry" />
        </mxCell>
        <mxCell id="O3SPldgWUN4qXCOJDomB-37" value="Confirm submission" style="ellipse;whiteSpace=wrap;html=1;" vertex="1" parent="1">
          <mxGeometry x="390" y="480" width="120" height="80" as="geometry" />
        </mxCell>
        <mxCell id="O3SPldgWUN4qXCOJDomB-39" value="&lt;div&gt;&lt;font style=&quot;font-size: 20px;&quot;&gt;&amp;lt;&amp;lt;actor&amp;gt;&amp;gt;&lt;/font&gt;&lt;/div&gt;&lt;div&gt;&lt;font style=&quot;font-size: 20px;&quot;&gt;Turnitin&lt;/font&gt;&lt;/div&gt;" style="rounded=0;whiteSpace=wrap;html=1;" vertex="1" parent="1">
          <mxGeometry x="810" y="648" width="120" height="60" as="geometry" />
        </mxCell>
        <mxCell id="O3SPldgWUN4qXCOJDomB-45" style="rounded=0;orthogonalLoop=1;jettySize=auto;html=1;entryX=1;entryY=0.5;entryDx=0;entryDy=0;endArrow=open;endFill=0;dashed=1;" edge="1" parent="1" source="O3SPldgWUN4qXCOJDomB-44" target="O3SPldgWUN4qXCOJDomB-37">
          <mxGeometry relative="1" as="geometry" />
        </mxCell>
        <mxCell id="O3SPldgWUN4qXCOJDomB-44" value="Add a note" style="ellipse;whiteSpace=wrap;html=1;" vertex="1" parent="1">
          <mxGeometry x="630" y="480" width="120" height="80" as="geometry" />
        </mxCell>
        <mxCell id="O3SPldgWUN4qXCOJDomB-48" style="rounded=0;orthogonalLoop=1;jettySize=auto;html=1;exitX=1;exitY=0.5;exitDx=0;exitDy=0;endArrow=none;startFill=0;" edge="1" parent="1" source="O3SPldgWUN4qXCOJDomB-46" target="O3SPldgWUN4qXCOJDomB-47">
          <mxGeometry relative="1" as="geometry" />
        </mxCell>
        <mxCell id="O3SPldgWUN4qXCOJDomB-46" value="Send a receipt to student" style="ellipse;whiteSpace=wrap;html=1;" vertex="1" parent="1">
          <mxGeometry x="460" y="923" width="120" height="80" as="geometry" />
        </mxCell>
        <mxCell id="O3SPldgWUN4qXCOJDomB-47" value="&lt;font style=&quot;font-size: 16px;&quot;&gt;&amp;lt;&amp;lt;actor&amp;gt;&amp;gt;&lt;/font&gt;&lt;div&gt;&lt;font style=&quot;font-size: 16px;&quot;&gt;Email service&lt;/font&gt;&lt;/div&gt;" style="rounded=0;whiteSpace=wrap;html=1;" vertex="1" parent="1">
          <mxGeometry x="820" y="933" width="120" height="60" as="geometry" />
        </mxCell>
        <mxCell id="O3SPldgWUN4qXCOJDomB-49" value="&amp;lt;&amp;lt;extend&amp;gt;&amp;gt;" style="text;html=1;align=center;verticalAlign=middle;whiteSpace=wrap;rounded=0;" vertex="1" parent="1">
          <mxGeometry x="540" y="490" width="60" height="30" as="geometry" />
        </mxCell>
      </root>
    </mxGraphModel>
  </diagram>
</mxfile>
